<mxfile host="app.diagrams.net" agent="Mozilla/5.0 (Windows NT 10.0; Win64; x64) AppleWebKit/537.36 (KHTML, like Gecko) Chrome/133.0.0.0 Safari/537.36" version="26.0.14">
  <diagram name="第 1 页" id="vRJoYxe_t1CxdExO-E0Y">
    <mxGraphModel dx="819" dy="422" grid="1" gridSize="10" guides="1" tooltips="1" connect="1" arrows="1" fold="1" page="1" pageScale="1" pageWidth="827" pageHeight="1169" math="0" shadow="0">
      <root>
        <mxCell id="0" />
        <mxCell id="1" parent="0" />
        <mxCell id="leD4EtCYWYrJHKbPkgnn-1" value="" style="rounded=0;whiteSpace=wrap;html=1;fontFamily=宋体;fontSize=13;fillColor=#dae8fc;strokeColor=#6c8ebf;fontStyle=0" parent="1" vertex="1">
          <mxGeometry x="70" y="110" width="50" height="310" as="geometry" />
        </mxCell>
        <mxCell id="leD4EtCYWYrJHKbPkgnn-3" value="面向半导体制造的质量管控方法研究" style="text;html=1;strokeColor=none;fillColor=none;align=center;verticalAlign=middle;whiteSpace=wrap;rounded=0;fontFamily=宋体;fontSize=15;fontStyle=0" parent="1" vertex="1">
          <mxGeometry x="85" y="140" width="20" height="239" as="geometry" />
        </mxCell>
        <mxCell id="leD4EtCYWYrJHKbPkgnn-10" value="" style="edgeStyle=orthogonalEdgeStyle;rounded=0;orthogonalLoop=1;jettySize=auto;html=1;fontFamily=宋体;fontSize=13;fontStyle=0" parent="1" source="leD4EtCYWYrJHKbPkgnn-4" target="leD4EtCYWYrJHKbPkgnn-9" edge="1">
          <mxGeometry relative="1" as="geometry" />
        </mxCell>
        <mxCell id="leD4EtCYWYrJHKbPkgnn-4" value="&lt;font color=&quot;#ff0000&quot;&gt;挑战一：参数序列多变、大量样本无标签、故障样本少&lt;/font&gt;&lt;br&gt;基于自监督对比学习的工艺参数故障检测" style="rounded=1;whiteSpace=wrap;html=1;fontFamily=宋体;fontSize=13;fillColor=#dae8fc;strokeColor=#6c8ebf;fontStyle=0" parent="1" vertex="1">
          <mxGeometry x="200" y="110" width="240" height="60" as="geometry" />
        </mxCell>
        <mxCell id="leD4EtCYWYrJHKbPkgnn-13" value="" style="edgeStyle=orthogonalEdgeStyle;rounded=0;orthogonalLoop=1;jettySize=auto;html=1;fontFamily=宋体;fontSize=13;fontStyle=0" parent="1" source="leD4EtCYWYrJHKbPkgnn-5" target="leD4EtCYWYrJHKbPkgnn-12" edge="1">
          <mxGeometry relative="1" as="geometry" />
        </mxCell>
        <mxCell id="leD4EtCYWYrJHKbPkgnn-5" value="&lt;font color=&quot;#ff0000&quot;&gt;挑战二：工艺流程长、多元传感器时空依赖关系复杂&lt;/font&gt;&lt;br&gt;基于图神经网络的产品质量虚拟量测" style="rounded=1;whiteSpace=wrap;html=1;fontFamily=宋体;fontSize=13;fillColor=#dae8fc;strokeColor=#6c8ebf;fontStyle=0" parent="1" vertex="1">
          <mxGeometry x="200" y="232.5" width="240" height="65" as="geometry" />
        </mxCell>
        <mxCell id="leD4EtCYWYrJHKbPkgnn-16" value="" style="edgeStyle=orthogonalEdgeStyle;rounded=0;orthogonalLoop=1;jettySize=auto;html=1;fontFamily=宋体;fontSize=13;fontStyle=0" parent="1" source="leD4EtCYWYrJHKbPkgnn-6" target="leD4EtCYWYrJHKbPkgnn-15" edge="1">
          <mxGeometry relative="1" as="geometry" />
        </mxCell>
        <mxCell id="leD4EtCYWYrJHKbPkgnn-6" value="&lt;font color=&quot;#ff0000&quot;&gt;挑战三：工艺参数维度高导致不良产品和生产参数因果关联困难&lt;/font&gt;&lt;br&gt;基于图学习可解释性的不良根因定位" style="rounded=1;whiteSpace=wrap;html=1;fontFamily=宋体;fontSize=13;fillColor=#dae8fc;strokeColor=#6c8ebf;fontStyle=0" parent="1" vertex="1">
          <mxGeometry x="200" y="360" width="240" height="60" as="geometry" />
        </mxCell>
        <mxCell id="XV_b17r9qpa5eP-i0__M-15" value="" style="edgeStyle=orthogonalEdgeStyle;rounded=0;orthogonalLoop=1;jettySize=auto;html=1;fontFamily=宋体;fontStyle=0" parent="1" source="leD4EtCYWYrJHKbPkgnn-9" target="XV_b17r9qpa5eP-i0__M-2" edge="1">
          <mxGeometry relative="1" as="geometry" />
        </mxCell>
        <mxCell id="leD4EtCYWYrJHKbPkgnn-9" value="&lt;p style=&quot;margin-top: 0pt; margin-bottom: 0pt; margin-left: 0in; direction: ltr; unicode-bidi: embed; word-break: normal; font-size: 13px;&quot;&gt;对单传感器参数序列进行故障检测，提前发现问题予以干预&lt;/p&gt;" style="rounded=1;whiteSpace=wrap;html=1;fontFamily=宋体;fontSize=13;fillColor=#dae8fc;strokeColor=#6c8ebf;dashed=1;fontStyle=0" parent="1" vertex="1">
          <mxGeometry x="480" y="110" width="120" height="60" as="geometry" />
        </mxCell>
        <mxCell id="leD4EtCYWYrJHKbPkgnn-11" value="目标" style="text;html=1;align=center;verticalAlign=middle;resizable=0;points=[];autosize=1;strokeColor=none;fillColor=none;fontFamily=宋体;fontSize=13;fontStyle=0" parent="1" vertex="1">
          <mxGeometry x="430" y="110" width="50" height="30" as="geometry" />
        </mxCell>
        <mxCell id="XV_b17r9qpa5eP-i0__M-16" value="" style="edgeStyle=orthogonalEdgeStyle;rounded=0;orthogonalLoop=1;jettySize=auto;html=1;strokeWidth=1;fontFamily=宋体;fontStyle=0" parent="1" source="leD4EtCYWYrJHKbPkgnn-12" target="XV_b17r9qpa5eP-i0__M-2" edge="1">
          <mxGeometry relative="1" as="geometry" />
        </mxCell>
        <mxCell id="leD4EtCYWYrJHKbPkgnn-12" value="&lt;p style=&quot;margin-top: 0pt; margin-bottom: 0pt; margin-left: 0in; direction: ltr; unicode-bidi: embed; word-break: normal; font-size: 13px;&quot;&gt;对生产过程数据分析建模预测产品质量，降低物理质检成本&lt;/p&gt;" style="rounded=1;whiteSpace=wrap;html=1;fontFamily=宋体;fontSize=13;fillColor=#dae8fc;strokeColor=#6c8ebf;dashed=1;fontStyle=0" parent="1" vertex="1">
          <mxGeometry x="480" y="235" width="120" height="60" as="geometry" />
        </mxCell>
        <mxCell id="leD4EtCYWYrJHKbPkgnn-14" value="目标" style="text;html=1;align=center;verticalAlign=middle;resizable=0;points=[];autosize=1;strokeColor=none;fillColor=none;fontFamily=宋体;fontSize=13;fontStyle=0" parent="1" vertex="1">
          <mxGeometry x="430" y="240" width="50" height="30" as="geometry" />
        </mxCell>
        <mxCell id="XV_b17r9qpa5eP-i0__M-17" value="" style="edgeStyle=orthogonalEdgeStyle;rounded=0;orthogonalLoop=1;jettySize=auto;html=1;fontFamily=宋体;fontStyle=0" parent="1" source="leD4EtCYWYrJHKbPkgnn-15" target="XV_b17r9qpa5eP-i0__M-2" edge="1">
          <mxGeometry relative="1" as="geometry" />
        </mxCell>
        <mxCell id="leD4EtCYWYrJHKbPkgnn-15" value="&lt;p style=&quot;margin-top: 0pt; margin-bottom: 0pt; margin-left: 0in; direction: ltr; unicode-bidi: embed; word-break: normal; font-size: 13px;&quot;&gt;准确定位导致产品不良的根本原因，实现“零缺陷”制造&lt;/p&gt;" style="rounded=1;whiteSpace=wrap;html=1;fontFamily=宋体;fontSize=13;fillColor=#dae8fc;strokeColor=#6c8ebf;dashed=1;fontStyle=0" parent="1" vertex="1">
          <mxGeometry x="480" y="360" width="120" height="60" as="geometry" />
        </mxCell>
        <mxCell id="leD4EtCYWYrJHKbPkgnn-17" value="目标" style="text;html=1;align=center;verticalAlign=middle;resizable=0;points=[];autosize=1;strokeColor=none;fillColor=none;fontFamily=宋体;fontSize=13;fontStyle=0" parent="1" vertex="1">
          <mxGeometry x="430" y="360" width="50" height="30" as="geometry" />
        </mxCell>
        <mxCell id="leD4EtCYWYrJHKbPkgnn-18" value="" style="endArrow=classic;html=1;rounded=0;exitX=0.25;exitY=1;exitDx=0;exitDy=0;entryX=0.25;entryY=0;entryDx=0;entryDy=0;fontFamily=宋体;fontSize=13;fontStyle=0" parent="1" source="leD4EtCYWYrJHKbPkgnn-4" target="leD4EtCYWYrJHKbPkgnn-5" edge="1">
          <mxGeometry width="50" height="50" relative="1" as="geometry">
            <mxPoint x="170" y="250" as="sourcePoint" />
            <mxPoint x="220" y="200" as="targetPoint" />
          </mxGeometry>
        </mxCell>
        <mxCell id="leD4EtCYWYrJHKbPkgnn-19" value="生产过程&lt;br style=&quot;font-size: 13px;&quot;&gt;数据" style="edgeLabel;html=1;align=center;verticalAlign=middle;resizable=0;points=[];fontFamily=宋体;fontSize=13;fontStyle=0" parent="leD4EtCYWYrJHKbPkgnn-18" vertex="1" connectable="0">
          <mxGeometry x="-0.1353" relative="1" as="geometry">
            <mxPoint as="offset" />
          </mxGeometry>
        </mxCell>
        <mxCell id="leD4EtCYWYrJHKbPkgnn-20" value="" style="endArrow=classic;html=1;rounded=0;entryX=0.25;entryY=0;entryDx=0;entryDy=0;exitX=0.25;exitY=1;exitDx=0;exitDy=0;fontFamily=宋体;fontSize=13;fontStyle=0" parent="1" source="leD4EtCYWYrJHKbPkgnn-5" target="leD4EtCYWYrJHKbPkgnn-6" edge="1">
          <mxGeometry width="50" height="50" relative="1" as="geometry">
            <mxPoint x="240" y="310" as="sourcePoint" />
            <mxPoint x="250" y="350" as="targetPoint" />
          </mxGeometry>
        </mxCell>
        <mxCell id="leD4EtCYWYrJHKbPkgnn-21" value="过程数据和&lt;br style=&quot;font-size: 13px;&quot;&gt;质量标签" style="edgeLabel;html=1;align=center;verticalAlign=middle;resizable=0;points=[];fontFamily=宋体;fontSize=13;fontStyle=0" parent="leD4EtCYWYrJHKbPkgnn-20" vertex="1" connectable="0">
          <mxGeometry x="-0.183" relative="1" as="geometry">
            <mxPoint as="offset" />
          </mxGeometry>
        </mxCell>
        <mxCell id="leD4EtCYWYrJHKbPkgnn-22" value="" style="endArrow=classic;html=1;rounded=0;entryX=0.75;entryY=1;entryDx=0;entryDy=0;exitX=0.75;exitY=0;exitDx=0;exitDy=0;fontFamily=宋体;fontSize=13;fontStyle=0" parent="1" source="leD4EtCYWYrJHKbPkgnn-6" target="leD4EtCYWYrJHKbPkgnn-5" edge="1">
          <mxGeometry width="50" height="50" relative="1" as="geometry">
            <mxPoint x="300" y="340" as="sourcePoint" />
            <mxPoint x="350" y="310" as="targetPoint" />
          </mxGeometry>
        </mxCell>
        <mxCell id="leD4EtCYWYrJHKbPkgnn-23" value="不良根因" style="edgeLabel;html=1;align=center;verticalAlign=middle;resizable=0;points=[];fontFamily=宋体;fontSize=13;fontStyle=0" parent="leD4EtCYWYrJHKbPkgnn-22" vertex="1" connectable="0">
          <mxGeometry x="0.0133" y="2" relative="1" as="geometry">
            <mxPoint as="offset" />
          </mxGeometry>
        </mxCell>
        <mxCell id="leD4EtCYWYrJHKbPkgnn-24" value="" style="endArrow=classic;html=1;rounded=0;entryX=0.75;entryY=1;entryDx=0;entryDy=0;exitX=0.75;exitY=0;exitDx=0;exitDy=0;fontFamily=宋体;fontSize=13;fontStyle=0" parent="1" source="leD4EtCYWYrJHKbPkgnn-5" target="leD4EtCYWYrJHKbPkgnn-4" edge="1">
          <mxGeometry width="50" height="50" relative="1" as="geometry">
            <mxPoint x="300" y="230" as="sourcePoint" />
            <mxPoint x="350" y="180" as="targetPoint" />
          </mxGeometry>
        </mxCell>
        <mxCell id="leD4EtCYWYrJHKbPkgnn-25" value="调整生产&lt;br style=&quot;font-size: 13px;&quot;&gt;参数" style="edgeLabel;html=1;align=center;verticalAlign=middle;resizable=0;points=[];fontFamily=宋体;fontSize=13;fontStyle=0" parent="leD4EtCYWYrJHKbPkgnn-24" vertex="1" connectable="0">
          <mxGeometry x="0.1565" y="1" relative="1" as="geometry">
            <mxPoint as="offset" />
          </mxGeometry>
        </mxCell>
        <mxCell id="leD4EtCYWYrJHKbPkgnn-26" value="" style="endArrow=classic;html=1;rounded=0;entryX=0;entryY=0.5;entryDx=0;entryDy=0;exitX=1.02;exitY=0.098;exitDx=0;exitDy=0;exitPerimeter=0;fontFamily=宋体;fontSize=13;fontStyle=0" parent="1" source="leD4EtCYWYrJHKbPkgnn-1" target="leD4EtCYWYrJHKbPkgnn-4" edge="1">
          <mxGeometry width="50" height="50" relative="1" as="geometry">
            <mxPoint x="160" y="140" as="sourcePoint" />
            <mxPoint x="200" y="100" as="targetPoint" />
          </mxGeometry>
        </mxCell>
        <mxCell id="leD4EtCYWYrJHKbPkgnn-27" value="" style="endArrow=classic;html=1;rounded=0;entryX=0;entryY=0.5;entryDx=0;entryDy=0;exitX=1;exitY=0.5;exitDx=0;exitDy=0;fontFamily=宋体;fontSize=13;fontStyle=0" parent="1" source="leD4EtCYWYrJHKbPkgnn-1" target="leD4EtCYWYrJHKbPkgnn-5" edge="1">
          <mxGeometry width="50" height="50" relative="1" as="geometry">
            <mxPoint x="150" y="270" as="sourcePoint" />
            <mxPoint x="200" y="220" as="targetPoint" />
          </mxGeometry>
        </mxCell>
        <mxCell id="leD4EtCYWYrJHKbPkgnn-28" value="" style="endArrow=classic;html=1;rounded=0;entryX=0;entryY=0.5;entryDx=0;entryDy=0;exitX=1.01;exitY=0.906;exitDx=0;exitDy=0;exitPerimeter=0;fontFamily=宋体;fontSize=13;fontStyle=0" parent="1" source="leD4EtCYWYrJHKbPkgnn-1" target="leD4EtCYWYrJHKbPkgnn-6" edge="1">
          <mxGeometry width="50" height="50" relative="1" as="geometry">
            <mxPoint x="150" y="390" as="sourcePoint" />
            <mxPoint x="200" y="340" as="targetPoint" />
          </mxGeometry>
        </mxCell>
        <mxCell id="leD4EtCYWYrJHKbPkgnn-32" value="生产完成后" style="text;html=1;align=center;verticalAlign=middle;resizable=0;points=[];autosize=1;strokeColor=none;fillColor=none;fontFamily=宋体;fontSize=13;fontStyle=0" parent="1" vertex="1">
          <mxGeometry x="115" y="240" width="90" height="30" as="geometry" />
        </mxCell>
        <mxCell id="leD4EtCYWYrJHKbPkgnn-33" value="生产过程中" style="text;html=1;align=center;verticalAlign=middle;resizable=0;points=[];autosize=1;strokeColor=none;fillColor=none;fontFamily=宋体;fontSize=13;fontStyle=0" parent="1" vertex="1">
          <mxGeometry x="110" y="110" width="90" height="30" as="geometry" />
        </mxCell>
        <mxCell id="leD4EtCYWYrJHKbPkgnn-34" value="生产完成后" style="text;html=1;strokeColor=none;fillColor=none;align=center;verticalAlign=middle;whiteSpace=wrap;rounded=0;fontFamily=宋体;fontSize=13;fontStyle=0" parent="1" vertex="1">
          <mxGeometry x="115" y="365" width="80" height="20" as="geometry" />
        </mxCell>
        <mxCell id="XV_b17r9qpa5eP-i0__M-2" value="" style="rounded=0;whiteSpace=wrap;html=1;fontFamily=宋体;fontSize=13;fillColor=#dae8fc;strokeColor=#6c8ebf;fontStyle=0" parent="1" vertex="1">
          <mxGeometry x="650" y="110" width="50" height="310" as="geometry" />
        </mxCell>
        <mxCell id="XV_b17r9qpa5eP-i0__M-18" value="面向半导体制造的质量管控系统实现" style="text;html=1;strokeColor=none;fillColor=none;align=center;verticalAlign=middle;whiteSpace=wrap;rounded=0;fontFamily=宋体;fontSize=15;fontStyle=0" parent="1" vertex="1">
          <mxGeometry x="665" y="140" width="20" height="239" as="geometry" />
        </mxCell>
      </root>
    </mxGraphModel>
  </diagram>
</mxfile>
